<svg version="1.1" id="Layer_1" xmlns="http://www.w3.org/2000/svg" xmlns:xlink="http://www.w3.org/1999/xlink" x="0px" y="0px"
	 width="100%" viewBox="0 0 1024 1024" enable-background="new 0 0 1024 1024" xml:space="preserve">
<path fill="#000000" opacity="1.000000" stroke="none" 
	d="
M133.000061,383.694519 
	C150.295456,383.694061 167.090820,383.694061 183.674805,383.694061 
	C185.306335,387.518433 184.327301,389.202209 180.806915,390.450165 
	C167.079498,395.316498 162.351639,402.214783 162.344330,416.604675 
	C162.334167,436.603516 162.328445,456.602386 162.361313,476.601166 
	C162.364243,478.388977 161.909225,480.273376 163.231400,482.313660 
	C171.043259,481.821808 176.633102,477.073181 181.196381,471.409607 
	C196.126358,452.879517 210.750214,434.101929 225.407227,415.353455 
	C228.080643,411.933777 230.086792,408.057129 231.223236,403.819916 
	C232.814362,397.887543 231.235092,395.017395 225.354858,393.321442 
	C221.688843,392.264099 217.999649,391.191315 214.247742,390.559906 
	C211.557434,390.107208 210.489258,389.018677 210.724426,386.309937 
	C210.956970,383.631622 212.820633,383.672699 214.671432,383.671600 
	C238.170029,383.657318 261.668610,383.653076 285.167175,383.685638 
	C286.933075,383.688080 288.955444,383.426971 289.250732,386.163177 
	C289.534454,388.792542 288.512329,389.888733 285.924042,390.661804 
	C270.741302,395.196289 258.051605,403.743500 247.006958,415.020203 
	C234.298401,427.995850 221.444229,440.832275 208.468887,453.540863 
	C205.136871,456.804352 204.863983,459.147003 207.693268,463.116302 
	C229.438263,493.623199 250.730545,524.453796 272.577545,554.886536 
	C280.282196,565.619080 289.620972,574.972900 302.095703,580.424255 
	C303.469879,581.024780 304.407166,581.721008 304.087006,583.365845 
	C303.751801,585.087769 302.392517,585.266785 301.030884,585.268494 
	C283.365723,585.290527 265.699738,585.382019 248.036072,585.222534 
	C244.021027,585.186279 241.682297,581.964905 239.402298,579.046814 
	C220.233063,554.513794 201.141907,529.918884 181.826950,505.501099 
	C176.783813,499.125488 170.772064,493.641449 163.159988,490.132263 
	C161.828445,492.128296 162.374130,494.002808 162.370193,495.751923 
	C162.325195,515.750610 162.338470,535.749512 162.349792,555.748352 
	C162.356720,567.993958 167.592621,575.236816 179.347229,579.200073 
	C181.376007,579.884094 183.819031,579.999390 183.192535,583.190796 
	C182.603165,586.192993 180.163177,585.319214 178.377533,585.323303 
	C153.545776,585.380432 128.713837,585.365417 103.881989,585.331238 
	C101.981445,585.328613 99.668137,585.846802 99.289749,582.851929 
	C98.921799,579.939758 101.131866,579.884094 103.021942,579.251221 
	C114.829811,575.297913 120.534630,567.858337 120.580460,554.954529 
	C120.742065,509.457764 120.604881,463.959991 120.676910,418.462738 
	C120.697800,405.266449 115.278114,395.780548 102.821526,390.697510 
	C101.458885,390.141479 99.678146,389.817993 99.133957,388.362640 
	C98.018143,385.378754 98.916092,383.604980 102.503212,383.636627 
	C112.501556,383.724915 122.501030,383.684540 133.000061,383.694519 
z"/>
<path fill="#000000" opacity="1.000000" stroke="none" 
	d="
M849.019287,578.071960 
	C850.613098,578.694824 851.836365,579.265625 853.122742,579.566467 
	C855.030212,580.012512 855.322815,581.281860 855.238708,582.935303 
	C855.134216,584.990356 853.767944,585.307373 852.142212,585.315063 
	C848.477722,585.332458 844.813293,585.346436 841.148804,585.347168 
	C825.824219,585.350220 810.499390,585.390503 795.175415,585.293518 
	C793.266663,585.281494 790.614746,586.388977 789.833130,583.189758 
	C789.094421,580.166077 791.449036,579.568054 793.393921,578.737793 
	C800.066895,575.889038 802.666504,570.613098 802.660339,563.643921 
	C802.638733,539.324829 802.537231,515.004639 802.750427,490.687378 
	C802.807007,484.232269 800.365356,479.478851 795.472107,475.652679 
	C794.165222,474.630829 792.735168,473.673431 791.709900,472.404999 
	C789.940308,470.215851 789.854797,468.141449 792.974670,466.954437 
	C806.493042,461.811157 819.958069,456.520447 833.557434,451.601044 
	C838.835876,449.691589 839.528809,450.612518 839.489502,456.175903 
	C839.454773,461.097961 838.796875,466.096832 840.121521,470.835693 
	C842.782104,471.547516 843.903259,469.821075 845.209717,468.698547 
	C855.508423,459.849091 866.802856,453.271820 880.743225,452.164276 
	C903.469299,450.358704 920.076416,461.460388 922.424194,485.942932 
	C924.819031,510.915985 921.454529,535.824585 922.296753,560.768799 
	C922.635010,570.786194 925.406250,575.287476 934.642456,578.982544 
	C936.454956,579.707764 938.608582,580.126465 938.169067,582.949951 
	C937.697754,585.978088 935.335632,585.306702 933.496094,585.311584 
	C914.507080,585.362305 895.517761,585.362854 876.528809,585.307495 
	C874.696045,585.302185 872.313965,585.994019 871.821411,582.981567 
	C871.329529,579.972961 873.520630,579.454285 875.582947,578.687744 
	C882.619751,576.071899 885.566406,572.307800 885.603149,564.851318 
	C885.718750,541.365295 885.840576,517.876099 885.571411,494.392609 
	C885.401855,479.592072 870.006836,469.846008 855.304016,474.783905 
	C854.989258,474.889618 854.693115,475.049652 854.382080,475.167816 
	C840.480835,480.450226 840.246277,480.767395 840.240845,495.482971 
	C840.232361,518.303223 840.289734,541.123657 840.219116,563.943726 
	C840.199097,570.418884 842.602112,575.219543 849.019287,578.071960 
z"/>
<path fill="#000000" opacity="1.000000" stroke="none" 
	d="
M397.233582,588.256836 
	C388.255798,586.121277 384.368134,579.427124 381.089844,571.705933 
	C377.757660,574.432556 374.873749,577.165894 371.633820,579.377686 
	C358.953278,588.034241 345.230438,591.632141 330.040527,587.310913 
	C317.593323,583.769836 308.373718,571.265747 307.515930,558.510498 
	C306.447845,542.628601 314.301727,532.580261 327.466980,525.853271 
	C342.458679,518.193054 358.596680,513.281006 374.250427,507.212799 
	C381.642242,504.347412 381.569763,504.480988 381.705170,496.715546 
	C381.831024,489.497162 380.928986,482.454193 378.675140,475.619781 
	C376.003571,467.518707 371.204712,463.405670 364.736450,463.369568 
	C358.178253,463.332977 351.569794,468.126617 349.081665,475.341553 
	C347.191467,480.822754 345.799286,486.486725 344.396454,492.121857 
	C343.042694,497.559814 339.907257,500.615265 334.265167,501.686462 
	C330.090820,502.478973 325.895630,502.824829 321.867950,502.143127 
	C311.375977,500.367310 310.477142,496.411011 312.112762,485.882141 
	C313.235107,478.657196 317.086365,472.365234 323.043915,467.917297 
	C343.626221,452.550446 366.397766,447.264984 391.276367,454.754639 
	C409.166687,460.140442 418.469513,474.195312 419.505096,492.819672 
	C420.755035,515.299500 419.592133,537.765991 420.277557,560.227844 
	C420.355225,562.773438 420.610809,565.176819 422.093109,567.348145 
	C424.874786,571.422974 428.277100,572.318848 432.641754,569.954102 
	C433.839478,569.305115 434.927460,568.429443 436.236908,569.611877 
	C437.701965,570.934753 437.072510,572.262451 436.236145,573.622131 
	C433.374542,578.274231 429.575195,582.001770 424.682892,584.368408 
	C416.122925,588.509338 407.199371,590.730957 397.233582,588.256836 
M359.249023,568.468140 
	C360.577148,568.524780 361.908539,568.672241 363.232849,568.623901 
	C375.544739,568.174988 381.662750,561.906555 381.676636,549.770630 
	C381.679871,546.941406 381.681213,544.112244 381.681427,541.283020 
	C381.682007,532.678345 381.681610,524.073669 381.681610,514.269653 
	C370.253021,519.424927 358.830597,521.959290 350.261536,530.620911 
	C339.545349,541.452759 345.228790,564.913635 359.249023,568.468140 
z"/>
<path fill="#000000" opacity="1.000000" stroke="none" 
	d="
M675.922241,472.938293 
	C696.652283,450.784424 724.680664,447.812561 748.472656,457.711975 
	C764.702271,464.464813 772.488098,478.053284 775.250488,494.793213 
	C775.974792,499.182312 776.760620,503.647247 776.188843,508.188477 
	C775.682800,512.207825 774.097351,514.149109 769.502747,514.093933 
	C747.517883,513.830139 725.528687,513.931213 703.541016,513.902344 
	C703.207886,513.901855 702.866638,513.945618 702.542786,513.889954 
	C698.299561,513.160095 696.792358,515.026184 697.348083,519.137146 
	C698.598450,528.387390 700.561523,537.359863 704.643921,545.908020 
	C715.021973,567.638428 747.094055,572.352600 764.423279,555.687012 
	C765.743469,554.417297 767.059631,553.140564 768.323486,551.815491 
	C769.786987,550.280945 771.225037,548.975647 773.445007,550.624390 
	C775.443848,552.108826 774.632507,553.707642 773.903076,555.476807 
	C767.342468,571.387512 755.173157,581.258545 739.201233,586.207886 
	C719.949890,592.173462 701.171387,590.420593 684.428955,578.621033 
	C669.655029,568.208862 662.055420,552.789185 658.843628,535.471497 
	C654.531555,512.221985 660.269287,491.309814 675.922241,472.938293 
M705.791748,469.308411 
	C698.948242,478.052643 698.544250,488.628906 697.380310,498.980255 
	C697.104370,501.434875 698.205750,502.609161 700.803223,502.666046 
	C710.938965,502.888031 721.044312,502.595490 730.987122,500.481873 
	C737.328247,499.133881 739.860779,495.658691 739.613403,489.058594 
	C739.445251,484.573639 738.464905,480.182678 736.870422,475.998444 
	C731.706909,462.448822 717.124817,459.042358 705.791748,469.308411 
z"/>
<path fill="#000000" opacity="1.000000" stroke="none" 
	d="
M583.553223,495.620422 
	C589.597839,485.687286 595.472595,476.078522 601.666504,465.947845 
	C593.221741,464.412323 585.708984,466.374176 578.178101,466.733459 
	C574.075989,466.929138 569.966736,467.939301 565.959229,468.966492 
	C555.176575,471.730377 547.392883,478.382202 542.216370,488.122192 
	C540.584961,491.191772 538.827637,493.134247 534.881042,490.140045 
	C536.687378,480.154358 538.571533,469.938934 540.360779,459.706970 
	C540.807739,457.150970 542.358459,456.652557 544.616394,456.654816 
	C577.102173,456.687378 609.587952,456.644440 642.073608,456.715790 
	C646.697632,456.725922 647.831116,460.108917 644.893677,464.861267 
	C637.719482,476.468201 630.441467,488.011169 623.286560,499.629944 
	C608.889282,523.009521 594.542480,546.420105 580.192505,569.828796 
	C579.513733,570.936218 579.005615,572.148254 578.023621,574.092529 
	C587.208069,574.919861 595.731079,576.004761 604.519836,575.351990 
	C621.600647,574.083252 632.786682,564.185974 642.076538,551.074951 
	C643.086609,549.649475 643.644165,547.017761 646.529419,548.472961 
	C649.169495,549.804504 647.964478,551.761719 647.533997,553.642517 
	C645.350098,563.183838 643.128845,572.717102 641.036255,582.278503 
	C640.346069,585.432434 638.705505,586.458069 635.457642,586.393188 
	C623.642639,586.156982 611.859192,585.279358 600.025879,585.240784 
	C579.863464,585.175049 559.727600,586.137329 539.575073,586.176270 
	C537.083801,586.181030 533.855408,587.560913 532.258423,584.605103 
	C530.556213,581.454773 532.264160,578.505005 533.971375,575.755188 
	C544.155701,559.351685 554.339172,542.947693 564.505432,526.533020 
	C570.814087,516.346863 577.091736,506.141541 583.553223,495.620422 
z"/>
<path fill="#000000" opacity="1.000000" stroke="none" 
	d="
M505.349731,559.880676 
	C504.599152,569.578796 507.947968,576.318115 517.064514,579.428833 
	C519.130676,580.133789 519.434448,581.486450 519.190125,583.296265 
	C518.905823,585.401733 517.258911,585.311768 515.780029,585.313416 
	C495.448853,585.336365 475.117676,585.338196 454.786499,585.325378 
	C453.472076,585.324524 451.886444,585.425842 451.669098,583.619446 
	C451.472168,581.982910 451.406708,580.294678 453.513824,579.510010 
	C464.551880,575.399414 467.109009,566.711670 466.982361,555.923462 
	C466.722229,533.766357 467.413452,511.602936 466.707886,489.441925 
	C466.548584,484.439117 464.781860,480.502197 460.880066,477.329773 
	C458.116028,475.082397 454.689972,473.240112 454.101379,469.046783 
	C455.645477,466.939423 458.165985,466.929352 460.248291,466.109985 
	C472.321503,461.359283 484.376556,456.555145 496.536835,452.035675 
	C503.843750,449.319977 505.344696,450.558899 505.346252,458.409698 
	C505.352966,492.073029 505.349304,525.736328 505.349731,559.880676 
z"/>
<path fill="#000000" opacity="1.000000" stroke="none" 
	d="
M479.448608,428.323212 
	C467.068054,425.642853 460.765289,415.400543 460.858765,405.042236 
	C460.972107,392.482330 468.630157,383.749573 480.819183,381.100861 
	C495.123840,377.992432 509.300293,391.569244 507.916534,406.623108 
	C506.810730,418.653717 497.586334,430.029724 479.448608,428.323212 
z"/>
</svg>